<svg id="Layer_1_1_" enable-background="new 0 0 64 64" height="512" viewBox="0 0 64 64" width="512" xmlns="http://www.w3.org/2000/svg"><path d="m32.01001 54.52997h-.01001l-10.42999-1.09998-8.85999-.92999c-.16003-.02002-.31-.02002-.46002-.02002-2.32001 0-4.25 1.88-4.25 4.26001 0 2.34998 1.90997 4.26001 4.26001 4.26001h31.10999c.72998 0 1.38-.29999 1.85999-.77002.47002-.47998.77001-1.13.77001-1.85998 0-1.35004-1.02002-2.47998-2.35999-2.62z"/><path d="m51.73999 61c2.35004 0 4.26001-1.91003 4.26001-4.26001 0-2.38-1.92999-4.26001-4.25-4.26001-.15002 0-.29999 0-.46002.02002l-8.85999.92999-.86273.09106 2.28137.23969c2.36621.24756 4.15137 2.22901 4.15137 4.60938 0 .94867-.29602 1.85571-.83179 2.62988z"/><path d="m14.69238 9.61877c.29297 2.26611 1.33203 7.41895 4.90527 10.9834 3.15491 3.11285 7.47888 4.31067 10.10065 4.77026-1.63837-2.29126-3.96533-6.37054-4.09674-11.13135-3.62109-3.36028-8.67077-4.34569-10.90918-4.62231z"/><path d="m45 30.99963c5.12891 0 9.5791-2.93408 11.4209-4.34326-1.78857-1.36475-6.03571-4.15765-10.94684-4.33051-3.54407 3.29803-8.11676 4.56213-10.90747 5.03784 2.19372 1.50263 6.07025 3.63593 10.43341 3.63593z"/><path d="m19 30.99963c4.37555 0 8.24658-2.13159 10.43585-3.63379-2.80219-.47424-7.39899-1.73621-10.91418-5.03979-4.92188.17419-9.1582 2.96295-10.94257 4.32788 1.8457 1.40869 6.30664 4.3457 11.4209 4.3457z"/><path d="m27.58301 13.82727c0 5.0708 2.99609 9.47412 4.41602 11.2749 1.41895-1.80518 4.41797-6.21924 4.41797-11.2749 0-5.0708-2.99609-9.47412-4.41602-11.2749-1.41895 1.80517-4.41797 6.21924-4.41797 11.2749z"/><path d="m34.3028 25.37091c2.62158-.45911 6.93762-1.64905 10.04877-4.71942 3.61133-3.60156 4.66016-8.76172 4.95508-11.03076-2.24207.2804-7.29773 1.27124-10.9082 4.62042-.13142 4.75977-2.45735 8.83813-4.09565 11.12976z"/><path d="m47 42-2.09003-5.73004c-.84997-2.35999-2.73999-4.12995-5.03997-4.87995-.01001-.01001-.02997-.01001-.03998-.01001-.77002-.25-1.59003-.38-2.43-.38h-10.80004c-.83997 0-1.65997.13-2.42999.38-.01001 0-.02997 0-.03998.01001-2.29999.75-4.19 2.51996-5.03998 4.87994l-2.09003 5.73005h-10c0 1.38.56 2.63 1.46002 3.53998.90998.90002 2.15998 1.46002 3.53998 1.46002h9l4-9v12l-1.61261 1.61261 8.61749.90643 8.60791-.90625-1.61279-1.61279v-12l4 9h9c1.38 0 2.63-.56 3.53998-1.46002.90002-.90998 1.46002-2.15998 1.46002-3.53998zm-14 2h-2v-2h2zm0-4h-2v-2h2zm0-4h-2v-2h2z"/></svg>