<svg width="202" height="146" viewBox="0 0 202 146" fill="none" xmlns="http://www.w3.org/2000/svg">
<rect x="9" y="6" width="184" height="134" fill="#30E3CA"/>
<path d="M101 73L9.20131 7L192.799 7L101 73Z" fill="#3E3E3E"/>
<path d="M101 73L192.799 139H9.20131L101 73Z" fill="#3E3E3E"/>
<path d="M100 73L9.5 138L9.5 7.98111L100 73Z" fill="#292929"/>
<path d="M102 73L192.5 8L192.5 138.019L102 73Z" fill="#292929"/>
<path d="M101 0L192.799 6H9.20131L101 0Z" fill="#30E3CA"/>
<path d="M101 146L9.20131 140L192.799 140L101 146Z" fill="#30E3CA"/>
<path d="M0 73L9 8L9 138L0 73Z" fill="#30E3CA"/>
<path d="M202 75L193 140L193 10L202 75Z" fill="#30E3CA"/>
<path d="M141 73L73.5 103.311V42.6891L141 73Z" fill="#30E3CA"/>
<path d="M138 73L75 100.713V45.2872L138 73Z" fill="#F5F5F5"/>
</svg>
